<svg version="1.1" id="Layer_1" xmlns="http://www.w3.org/2000/svg" xmlns:xlink="http://www.w3.org/1999/xlink" x="0px" y="0px"
	 width="100%" viewBox="0 0 1024 1024" enable-background="new 0 0 1024 1024" xml:space="preserve">
<path fill="#000000" opacity="1.000000" stroke="none" 
	d="
M381.578857,496.460205 
	C383.567261,499.373627 385.312592,502.015930 387.163605,504.582001 
	C396.108826,516.982849 389.531647,524.429382 376.827850,527.258057 
	C372.625854,528.193726 368.326141,528.831970 364.036438,529.185852 
	C360.843750,529.449280 360.254395,531.077148 360.312225,533.794861 
	C360.411163,538.446899 359.922791,543.177246 361.667511,547.616028 
	C362.780121,550.446655 361.925659,552.488037 359.820770,554.226746 
	C356.960968,556.589111 355.754364,559.269348 357.295410,562.960938 
	C359.077911,567.231018 358.408417,570.968628 354.691376,574.143066 
	C352.708618,575.836426 352.247467,578.381836 352.272186,580.998230 
	C352.325745,586.663513 352.020325,592.343384 352.321228,597.992859 
	C353.168671,613.903687 344.349548,619.505615 334.812164,624.136414 
	C331.343811,625.820312 327.644836,626.575745 323.695557,626.392517 
	C312.741211,625.884277 301.749329,627.196106 290.794891,625.484497 
	C288.099823,625.063416 285.649567,624.249207 283.180634,623.331421 
	C238.911133,606.873291 193.992722,592.287598 149.334091,576.953552 
	C136.489807,572.543274 136.539047,572.672668 135.620682,559.362366 
	C135.129456,552.243103 134.489655,545.114380 133.442505,538.060303 
	C132.763657,533.487244 131.370911,529.034729 129.011673,524.899902 
	C122.740211,513.908508 116.590660,502.846283 110.502144,491.752106 
	C101.277283,474.943146 97.210167,456.841888 96.588799,437.743622 
	C95.897377,416.492096 98.728966,395.897919 107.100777,376.292267 
	C123.073792,338.885590 151.548782,316.196655 190.958115,307.892365 
	C223.394775,301.057373 255.683273,302.996307 286.304169,316.459076 
	C328.300720,334.923248 353.800110,367.060181 362.429443,412.317841 
	C364.012512,420.620392 365.787964,428.872131 364.409149,437.437531 
	C364.008728,439.925201 363.671234,442.427002 362.552582,444.628967 
	C358.496399,452.612701 360.499603,460.200073 364.065094,467.546906 
	C368.945770,477.603851 375.495575,486.686737 381.578857,496.460205 
M272.021637,391.389465 
	C244.870911,391.386627 217.720184,391.378693 190.569458,391.383820 
	C181.610687,391.385498 178.340851,394.680603 178.334534,403.777222 
	C178.315765,430.761353 178.316986,457.745514 178.335892,484.729645 
	C178.337296,486.721436 178.364975,488.742065 178.685181,490.699463 
	C179.711090,496.970886 182.739853,499.679626 189.170532,499.697601 
	C216.654068,499.774567 244.137970,499.783661 271.621552,499.726288 
	C278.623138,499.711670 282.587646,495.882416 282.606873,489.000854 
	C282.687866,460.018097 282.685547,431.034912 282.603516,402.052155 
	C282.586639,396.087891 279.036041,392.444580 272.021637,391.389465 
M170.037537,412.926147 
	C168.198196,411.321136 166.704254,409.271606 163.794907,409.351837 
	C158.994339,409.484314 154.187180,409.354645 149.383514,409.404572 
	C145.822769,409.441589 143.582611,411.434662 143.553833,414.848969 
	C143.525681,418.191315 145.933640,419.732971 149.214890,419.737518 
	C154.184433,419.744446 159.157318,419.825958 164.122513,419.672668 
	C168.090363,419.550171 170.259521,417.333405 170.037537,412.926147 
M293.900146,480.079529 
	C299.167969,481.111786 304.422638,480.641357 309.712830,480.157257 
	C313.226074,479.835785 316.066315,478.868317 316.363403,474.946167 
	C316.573792,472.168213 312.080475,469.120911 308.518921,469.347778 
	C304.721375,469.589630 300.931030,470.125336 297.134857,470.152405 
	C293.982025,470.174927 291.354065,471.144165 290.210693,473.990631 
	C289.159790,476.606964 291.940521,477.907043 293.900146,480.079529 
M314.192383,448.984497 
	C315.620453,447.537445 317.023041,446.094238 315.865540,443.799103 
	C314.710541,441.508850 312.895294,440.331573 310.309418,440.335907 
	C305.666870,440.343689 301.023315,440.384888 296.382050,440.303406 
	C293.247101,440.248383 290.179291,441.278564 289.807098,444.334503 
	C289.400055,447.676971 292.754089,449.943237 295.464447,450.212616 
	C301.467010,450.809174 307.645996,451.735748 314.192383,448.984497 
M148.287155,440.395325 
	C145.230133,440.834015 143.152512,442.568542 143.590576,445.665283 
	C144.028534,448.761383 146.471710,450.482330 149.614975,450.582764 
	C154.087830,450.725616 158.575485,450.769623 163.043793,450.567657 
	C166.258560,450.422363 169.498657,448.814880 169.361572,445.496765 
	C169.221909,442.116791 166.222366,440.295868 162.571472,440.328186 
	C158.094101,440.367798 153.616241,440.350739 148.287155,440.395325 
M313.223328,419.209503 
	C315.612274,417.806061 316.989746,415.830780 316.026581,413.028229 
	C315.088043,410.297546 312.731995,409.432861 310.067841,409.392273 
	C305.907501,409.328888 301.745026,409.309753 297.584778,409.366791 
	C294.116058,409.414307 290.650848,410.779388 290.644196,414.353363 
	C290.637695,417.861267 294.218445,419.436768 297.514557,419.593933 
	C302.487213,419.831024 307.483887,419.563354 313.223328,419.209503 
M195.723068,510.716492 
	C195.600876,515.996094 195.503464,521.276367 195.347260,526.554993 
	C195.252365,529.761353 196.260452,532.372742 199.801270,532.481323 
	C203.324249,532.589294 205.361603,530.137390 205.521561,526.855896 
	C205.753998,522.087036 206.050598,517.275757 205.119400,512.508545 
	C204.617615,509.939636 203.723007,507.426544 201.133789,506.690216 
	C198.665817,505.988403 197.594269,508.583130 195.723068,510.716492 
M205.649002,367.681396 
	C205.632690,366.182159 205.692093,364.677490 205.584183,363.184875 
	C205.365402,360.159515 203.387268,358.742523 200.641022,358.530457 
	C197.646088,358.299255 195.706726,360.195160 195.542404,362.913635 
	C195.221451,368.223083 195.259888,373.574982 195.524078,378.890656 
	C195.661697,381.659424 197.999603,383.565399 200.400040,383.949982 
	C203.093094,384.381439 204.299042,381.717865 205.066071,379.521820 
	C206.301926,375.983490 205.407181,372.252380 205.649002,367.681396 
M264.664337,522.329041 
	C264.665436,520.496216 264.510498,518.647156 264.698181,516.833679 
	C265.177460,512.201965 263.741516,508.704681 259.168793,506.723724 
	C255.796371,508.783264 253.961090,511.552612 254.242935,515.727173 
	C254.478088,519.210388 254.303085,522.722107 254.285187,526.221130 
	C254.268188,529.538513 255.107483,532.468811 259.011200,532.527466 
	C262.949524,532.586548 264.386688,529.792908 264.629700,526.247131 
	C264.697906,525.251587 264.654236,524.248413 264.664337,522.329041 
M152.704483,470.379791 
	C151.873154,470.378876 151.040024,470.413330 150.210831,470.370880 
	C146.680450,470.190186 143.468933,471.049469 143.577301,475.176514 
	C143.673965,478.858307 146.692780,479.860199 150.039719,479.817719 
	C154.195755,479.764954 158.363144,479.604095 162.506424,479.834839 
	C166.460403,480.055084 169.133835,478.437531 171.149078,475.065369 
	C169.208267,471.754669 166.628479,469.977753 162.621933,470.318176 
	C159.650208,470.570679 156.640533,470.376617 152.704483,470.379791 
M232.643890,382.705688 
	C236.781281,377.182953 234.114304,370.837463 234.734299,364.893890 
	C235.077621,361.602631 233.798065,358.627197 230.057114,358.595428 
	C226.635635,358.566406 224.675537,361.160767 224.455856,364.444031 
	C224.180222,368.563721 224.166458,372.731781 224.454620,376.849884 
	C224.752762,381.110626 228.568497,384.036041 232.643890,382.705688 
M234.668640,513.269226 
	C234.129089,510.520416 232.845230,507.330536 230.036209,507.737732 
	C227.002930,508.177490 224.609085,511.017792 224.429977,514.542114 
	C224.218933,518.694824 224.280258,522.868958 224.401733,527.028625 
	C224.497009,530.291504 226.229568,532.474487 229.594086,532.552612 
	C233.065186,532.633301 234.662155,530.472839 234.688889,527.116577 
	C234.723389,522.787109 234.711060,518.457275 234.668640,513.269226 
M259.494995,384.050781 
	C262.202393,383.054352 264.173401,380.911652 264.414032,378.331360 
	C264.872986,373.408875 264.805634,368.393280 264.435394,363.455475 
	C264.241058,360.863739 262.220917,358.618500 259.483643,358.708801 
	C256.625427,358.803070 254.574158,360.848816 254.385162,363.882111 
	C254.158981,367.512329 254.479782,371.178253 254.220978,374.804291 
	C253.929672,378.885651 255.338699,381.884155 259.494995,384.050781 
z"/>
<path fill="#000000" opacity="1.000000" stroke="none" 
	d="
M462.713318,515.378784 
	C480.678925,512.272400 496.849915,514.948303 510.860046,526.760254 
	C519.030701,533.648926 523.469604,542.395874 524.752930,552.960754 
	C525.110901,555.907654 523.972656,557.186768 521.427612,557.234070 
	C514.436279,557.363953 507.440399,557.311768 500.447327,557.237427 
	C498.133728,557.212830 496.965820,555.493774 496.075043,553.631165 
	C489.222961,539.304382 475.195068,537.486023 462.592224,543.155212 
	C457.334198,545.520508 453.891052,549.636230 453.573669,555.367126 
	C453.281464,560.644104 456.650970,564.262939 460.993500,566.960144 
	C469.194794,572.054199 478.600189,573.819153 487.627350,576.612122 
	C495.904480,579.173035 504.182434,581.787903 511.556274,586.426758 
	C534.453552,600.831299 533.648315,637.327576 510.130737,652.252502 
	C502.032410,657.391846 493.213043,659.831848 483.765625,660.352783 
	C469.565125,661.135803 455.774933,659.809875 443.631531,651.468445 
	C432.291595,643.679016 424.842804,633.251648 422.904907,619.355652 
	C422.190948,614.236206 423.244568,612.967651 428.325806,612.861755 
	C433.486572,612.754150 438.653015,612.913757 443.813477,612.798401 
	C447.785339,612.709595 450.558868,614.154114 451.835175,618.081299 
	C456.613800,632.785583 475.317566,639.357117 491.088928,631.657654 
	C500.037292,627.289307 501.505371,615.922363 493.945160,609.290100 
	C488.713531,604.700562 482.292572,602.295593 475.750336,600.283264 
	C462.753784,596.285645 449.193604,593.728149 437.847931,585.529480 
	C429.670227,579.620056 424.891846,571.605957 424.723480,561.486084 
	C424.273743,534.457336 435.524200,520.866760 462.713318,515.378784 
z"/>
<path fill="#000000" opacity="1.000000" stroke="none" 
	d="
M155.400085,644.485718 
	C200.573257,659.500732 245.345551,674.472168 290.188965,689.227539 
	C302.927917,693.419189 303.022675,693.130554 303.022797,706.417969 
	C303.022797,706.917480 303.044159,707.417114 303.041595,707.916565 
	C302.988434,718.207397 301.831726,719.374817 291.703888,719.373291 
	C283.544250,719.372009 275.344727,718.859497 267.233948,719.489197 
	C253.740433,720.536926 241.353973,716.833069 228.811462,712.641846 
	C200.129913,703.057678 171.282669,693.968689 142.486603,684.728882 
	C138.853333,683.562988 135.104492,682.762390 131.441833,681.681946 
	C124.885704,679.747742 122.191612,676.362305 122.074173,669.379089 
	C121.922981,660.389465 121.961334,651.394653 122.058929,642.403625 
	C122.122177,636.577759 125.140877,634.476685 130.890015,636.309998 
	C138.969513,638.886414 146.983932,641.666931 155.400085,644.485718 
z"/>
<path fill="#000000" opacity="1.000000" stroke="none" 
	d="
M558.340210,459.000061 
	C558.340393,467.500061 558.258606,475.501251 558.375183,483.499542 
	C558.433960,487.535065 556.659485,489.301056 552.672913,489.221588 
	C547.841431,489.125305 543.006226,489.228943 538.173645,489.168396 
	C532.280273,489.094543 531.658997,488.472290 531.656372,482.453186 
	C531.639465,443.953217 531.646973,405.453278 531.647217,366.953308 
	C531.647278,361.786652 531.750793,356.617493 531.619629,351.454254 
	C531.530334,347.944763 533.042908,346.011841 536.515503,345.943054 
	C542.178833,345.830902 547.847046,345.825409 553.510742,345.922180 
	C557.417236,345.988922 558.396240,348.448273 558.377075,351.975677 
	C558.290161,367.969696 558.339111,383.964478 558.339111,401.454926 
	C562.602783,395.724152 566.862610,391.731354 572.309021,389.217529 
	C594.539062,378.957367 619.723083,392.977753 623.372192,417.572174 
	C624.109314,422.539948 624.364197,427.490936 624.351379,432.493439 
	C624.309021,448.993317 624.351440,465.493378 624.331543,481.993317 
	C624.323975,488.306671 623.511902,489.096558 617.073303,489.160828 
	C612.740417,489.204102 608.398499,489.001495 604.075684,489.214203 
	C599.625916,489.433197 597.607239,487.273529 597.268066,483.119873 
	C597.105652,481.130951 596.996399,479.131805 596.990112,477.136902 
	C596.941101,461.637115 597.052856,446.135559 596.847778,430.638062 
	C596.721619,421.101105 592.029480,414.527100 584.663574,412.686218 
	C573.749878,409.958710 563.663452,415.515472 560.305664,426.253296 
	C559.066650,430.215698 558.333435,434.309204 558.339783,438.499573 
	C558.349976,445.166412 558.341064,451.833221 558.340210,459.000061 
z"/>
<path fill="#000000" opacity="1.000000" stroke="none" 
	d="
M855.421082,423.376007 
	C853.365540,425.563751 851.549133,427.485504 849.389038,429.770813 
	C857.497375,442.161530 865.498840,454.390839 873.502380,466.618805 
	C877.240967,472.330597 881.057190,477.993286 884.698853,483.766174 
	C887.158447,487.665192 886.362366,489.083374 881.647522,489.159241 
	C874.820007,489.269104 867.986267,489.044312 861.160767,489.202942 
	C857.131714,489.296570 854.702393,487.369537 852.716370,484.127350 
	C845.522827,472.383728 837.632874,461.074615 830.705139,448.277191 
	C825.340515,454.182007 818.990356,458.562622 820.214905,467.724304 
	C820.892822,472.796967 820.069092,478.052429 820.402466,483.194336 
	C820.712158,487.971924 818.562622,489.369141 814.218201,489.207703 
	C809.394653,489.028442 804.558350,489.222198 799.728088,489.187256 
	C793.811829,489.144440 792.677368,488.049988 792.669067,482.191650 
	C792.642029,463.035828 792.664734,443.879883 792.664551,424.723999 
	C792.664307,400.904053 792.646912,377.084106 792.667480,353.264160 
	C792.672729,347.154724 793.140381,346.721222 799.207275,346.687683 
	C803.871216,346.661896 808.535400,346.666840 813.199402,346.689270 
	C820.049683,346.722168 820.329834,346.974365 820.334839,353.670715 
	C820.351562,375.991486 820.331177,398.312256 820.362488,420.632996 
	C820.364685,422.238831 819.902588,423.928375 821.163452,426.056610 
	C827.512573,418.793243 833.693787,411.722992 839.873657,404.651611 
	C841.734802,402.521912 844.066589,400.642609 845.366150,398.211975 
	C849.986084,389.571350 857.307129,387.595276 866.330688,388.585327 
	C870.445496,389.036743 874.651428,388.625763 878.815002,388.680420 
	C880.587097,388.703644 882.790771,388.221863 883.577820,390.418793 
	C884.247803,392.288574 882.503174,393.389038 881.414673,394.595673 
	C872.835693,404.105713 864.246338,413.606384 855.421082,423.376007 
z"/>
<path fill="#000000" opacity="1.000000" stroke="none" 
	d="
M850.340820,631.411072 
	C850.337280,638.363831 850.260742,644.864197 850.358215,651.362061 
	C850.421448,655.579102 848.546021,657.448120 844.317627,657.337769 
	C839.154907,657.203064 833.974854,657.086548 828.823364,657.359924 
	C823.940796,657.619019 822.570251,655.538086 822.587952,650.861511 
	C822.729309,613.532532 822.667358,576.202759 822.667419,538.873230 
	C822.667419,532.873840 822.848572,526.867065 822.604980,520.877563 
	C822.425476,516.464478 824.462158,514.855042 828.545410,514.891296 
	C833.377625,514.934204 838.211060,514.836609 843.043396,514.875183 
	C849.398438,514.925964 850.321838,515.824036 850.328735,522.110107 
	C850.353027,544.107849 850.338928,566.105652 850.339355,588.103394 
	C850.339355,589.763245 850.339294,591.423096 850.339294,594.265747 
	C853.560791,590.678467 856.162292,587.866821 858.669495,584.973389 
	C865.753601,576.798523 872.874329,568.653076 879.816345,560.358582 
	C882.044617,557.696167 884.491394,556.495544 887.988098,556.599426 
	C894.814636,556.802307 901.651611,556.635864 908.484131,556.667725 
	C910.101074,556.675293 911.813293,556.361938 913.533264,557.648010 
	C913.029358,561.397095 909.927734,563.432495 907.746704,565.883423 
	C899.225342,575.459656 890.553284,584.906494 881.744385,594.218994 
	C879.542603,596.546631 879.725281,598.110657 881.384766,600.614319 
	C892.518555,617.412537 903.516235,634.301392 914.488586,651.205811 
	C917.455444,655.776672 916.599487,657.227112 911.027710,657.295044 
	C904.862671,657.370178 898.688660,657.126099 892.532288,657.368347 
	C888.165283,657.540161 885.212219,655.776062 883.104126,652.141602 
	C876.255798,640.334595 868.043091,629.359802 861.770752,617.199402 
	C861.560486,616.791687 861.143311,616.490662 860.315430,615.585388 
	C856.989624,620.928650 850.250122,623.534119 850.340820,631.411072 
z"/>
<path fill="#000000" opacity="1.000000" stroke="none" 
	d="
M260.208435,626.602173 
	C271.644775,630.840454 283.028290,633.985657 294.013641,638.397827 
	C299.947205,640.781006 302.500519,644.652649 302.769684,650.266663 
	C303.200165,659.244568 303.155884,668.250854 303.105469,677.243896 
	C303.078949,681.974304 300.071625,681.521484 296.834381,680.402649 
	C275.927155,673.176575 255.038879,665.894226 234.092026,658.784668 
	C204.360153,648.693481 174.694107,638.401550 144.650986,629.247864 
	C135.998138,626.611511 133.764771,623.409363 133.762344,614.489807 
	C133.760361,607.159363 133.730301,599.828796 133.773331,592.498596 
	C133.807983,586.593689 135.550507,585.085876 141.554688,586.892334 
	C151.744736,589.958313 161.801880,593.470520 171.892151,596.862793 
	C201.210693,606.719421 230.517990,616.609497 260.208435,626.602173 
z"/>
<path fill="#000000" opacity="1.000000" stroke="none" 
	d="
M676.294556,595.519653 
	C676.033020,579.295898 664.507202,571.310486 649.702759,576.569092 
	C645.182983,578.174500 641.926941,581.089905 640.358704,585.610718 
	C639.447937,588.236511 637.877563,589.247375 635.159729,589.189331 
	C629.998779,589.079041 624.833435,589.173279 619.669922,589.185486 
	C615.426758,589.195496 614.162292,587.175476 615.082703,583.094482 
	C618.816284,566.541138 631.008545,555.889465 648.017395,553.494629 
	C656.256958,552.334473 664.290527,552.641541 672.212524,554.516968 
	C690.673401,558.887329 701.620667,571.782104 703.293152,590.736206 
	C705.081787,611.006287 703.734375,631.327698 704.093384,651.622375 
	C704.163574,655.589539 702.196045,657.402344 698.251953,657.314453 
	C694.755859,657.236511 691.234375,657.056702 687.763550,657.365417 
	C682.318604,657.849792 678.159241,656.737488 677.406311,650.194458 
	C662.581909,661.577759 646.904785,662.172302 630.541687,655.446533 
	C618.747559,650.598816 611.589783,637.873108 612.723511,624.246033 
	C613.821350,611.050903 620.810242,603.192383 634.253662,599.483032 
	C644.995361,596.519165 655.910706,596.491028 666.896423,596.730774 
	C669.973999,596.797913 673.193542,597.719666 676.294556,595.519653 
M643.477051,616.980652 
	C638.567566,623.600098 639.314819,631.605469 645.658264,635.706848 
	C652.537537,640.154846 659.837341,639.573242 667.049133,636.273926 
	C674.218628,632.994080 676.090454,626.644226 676.629333,619.543030 
	C676.821716,617.007507 676.039429,615.477234 673.164856,615.223572 
	C668.886230,614.845947 664.646790,613.848694 660.368713,613.683716 
	C654.791016,613.468628 649.042053,612.979675 643.477051,616.980652 
z"/>
<path fill="#000000" opacity="1.000000" stroke="none" 
	d="
M713.631653,394.429504 
	C729.139587,383.042847 753.066833,383.197083 765.523315,394.493561 
	C773.574341,401.794739 776.971436,411.342499 777.202637,421.703247 
	C777.659790,442.185028 777.266724,462.684601 777.397705,483.175720 
	C777.425842,487.572998 775.437134,489.176239 771.382080,489.148743 
	C766.551025,489.115967 761.719421,489.168488 756.888062,489.175812 
	C752.845276,489.181946 750.761780,487.280273 750.649353,483.114746 
	C750.213379,466.965210 749.676697,450.818878 750.393860,434.662323 
	C750.488953,432.520599 750.565247,430.307800 750.155090,428.225403 
	C747.650940,415.509552 741.968811,411.258362 729.237854,412.363068 
	C718.299316,413.312195 711.606689,420.879364 711.409973,433.198975 
	C711.157349,449.022217 711.289062,464.851257 711.198792,480.677521 
	C711.156372,488.120331 710.147888,489.100708 702.874695,489.142395 
	C698.543335,489.167206 694.211243,489.100067 689.879944,489.130432 
	C685.862366,489.158600 683.729370,487.577698 683.739441,483.199951 
	C683.806946,453.711731 683.785095,424.223145 683.722107,394.734863 
	C683.713257,390.581909 685.387756,388.536407 689.664734,388.645996 
	C693.993408,388.756897 698.339539,388.867798 702.655701,388.608154 
	C707.469666,388.318573 710.044800,389.890015 709.394348,395.103577 
	C709.300232,395.858063 709.567017,396.657623 709.719116,397.844788 
	C711.184509,396.562683 712.276123,395.607544 713.631653,394.429504 
z"/>
<path fill="#000000" opacity="1.000000" stroke="none" 
	d="
M457.000061,346.677307 
	C476.326904,346.679504 495.154572,346.779694 513.979919,346.615784 
	C518.623352,346.575378 520.738953,347.969666 520.433167,352.908783 
	C520.104370,358.220245 520.195190,363.572662 520.388855,368.896790 
	C520.540039,373.053772 518.746094,374.483368 514.727539,374.405396 
	C506.233887,374.240570 497.728363,374.562958 489.240173,374.293030 
	C485.317322,374.168274 483.661224,375.624237 483.703979,379.363678 
	C483.745789,383.020569 483.870178,386.677094 483.872406,390.333832 
	C483.890808,420.323364 483.899872,450.312866 483.886688,480.302399 
	C483.882965,488.808105 483.470123,489.178162 474.784851,489.207672 
	C470.786285,489.221222 466.787292,489.252869 462.789124,489.215210 
	C457.056488,489.161194 456.089935,488.239777 456.076630,482.543610 
	C456.041504,467.548920 456.025543,452.553925 456.077881,437.559326 
	C456.144196,418.569946 456.260284,399.580658 456.413696,380.591797 
	C456.448151,376.326080 454.926941,374.172913 450.241608,374.303406 
	C441.584778,374.544556 432.914185,374.254333 424.253540,374.413513 
	C420.236420,374.487335 418.459351,373.046997 418.614166,368.883850 
	C418.824524,363.226898 418.813141,357.551514 418.621521,351.893341 
	C418.487061,347.923920 420.259094,346.612976 424.011566,346.650726 
	C434.840057,346.759644 445.670441,346.682190 457.000061,346.677307 
z"/>
<path fill="#000000" opacity="1.000000" stroke="none" 
	d="
M729.991821,646.015747 
	C716.261353,631.666809 712.602417,614.726990 715.505127,595.979736 
	C718.446106,576.985168 728.920227,563.656860 746.675720,556.489929 
	C771.185242,546.596680 800.173218,558.238708 808.984924,580.384949 
	C809.230957,581.003235 809.460938,581.628235 809.681458,582.256042 
	C812.421997,590.058350 811.547241,591.343323 803.489624,591.352051 
	C800.825684,591.354980 798.151794,591.203064 795.499695,591.380249 
	C789.201477,591.800903 784.498047,590.986633 780.199951,584.657654 
	C772.660400,573.555481 754.374939,574.863403 746.663391,585.951233 
	C738.184143,598.142883 739.830017,619.676331 750.030823,630.008301 
	C759.209106,639.304565 775.827087,637.530273 781.515869,625.818726 
	C784.526062,619.621521 788.348816,618.092651 794.399597,618.587952 
	C798.369324,618.912903 802.387024,618.619873 806.382324,618.671753 
	C811.813293,618.742249 812.844727,620.107544 811.167542,625.434387 
	C806.215515,641.162415 795.807068,651.811951 780.163208,656.681091 
	C761.786377,662.400635 744.669556,660.333618 729.991821,646.015747 
z"/>
<path fill="#000000" opacity="1.000000" stroke="none" 
	d="
M564.987061,656.390869 
	C550.596008,651.151123 548.662292,638.899719 548.031006,626.614136 
	C547.322693,612.827942 547.710938,598.976196 547.919189,585.157471 
	C547.985962,580.727112 546.759888,578.938477 542.042297,579.022644 
	C532.824585,579.187195 532.820312,578.946411 532.825012,569.888184 
	C532.825317,569.222046 532.824768,568.555969 532.825745,567.889832 
	C532.842529,556.923706 531.873047,556.164978 543.359924,556.700684 
	C547.045898,556.872498 547.978516,555.177002 547.797424,551.908020 
	C547.396912,544.678162 548.957153,537.723083 551.033264,530.858093 
	C552.294312,526.688599 554.738220,524.414062 559.439697,524.859253 
	C562.741211,525.171997 566.095093,524.936584 569.425598,524.937500 
	C573.481628,524.938599 575.512390,526.665527 575.385437,531.015869 
	C575.186340,537.837708 575.516235,544.676086 575.274048,551.495117 
	C575.137573,555.338562 576.257996,556.914246 580.334778,556.733398 
	C586.816589,556.445801 593.324951,556.805115 599.813904,556.612854 
	C603.909912,556.491577 605.596619,558.113708 605.381592,562.197815 
	C605.189270,565.851318 605.220520,569.528015 605.372803,573.185364 
	C605.553467,577.526001 603.431885,579.164856 599.319214,579.121582 
	C592.825623,579.053162 586.327393,579.266418 579.836853,579.116577 
	C576.332275,579.035706 575.230530,580.433105 575.271240,583.851196 
	C575.424011,596.672363 575.224487,609.497803 575.392151,622.318604 
	C575.531677,632.996216 580.687073,637.052063 591.150269,635.113892 
	C599.590149,633.550476 601.335999,634.967590 601.349854,643.393433 
	C601.369812,655.523438 601.405518,655.747559 589.015808,657.720337 
	C581.130127,658.975891 573.131897,659.217896 564.987061,656.390869 
z"/>
<path fill="#000000" opacity="1.000000" stroke="none" 
	d="
M667.349060,478.924927 
	C667.340454,481.079926 667.299500,482.746796 667.329834,484.412415 
	C667.382263,487.282990 665.838440,488.897003 663.142761,488.978394 
	C656.982971,489.164337 650.810120,489.264862 644.653015,489.070526 
	C640.541748,488.940765 639.708496,486.000275 639.722351,482.405884 
	C639.785278,466.075409 639.736084,449.744537 639.732422,433.413788 
	C639.729614,420.582489 639.830872,407.750122 639.683655,394.920532 
	C639.632080,390.424591 641.461243,388.505432 645.913147,388.636292 
	C650.574951,388.773346 655.244141,388.647980 659.909973,388.662872 
	C666.996094,388.685455 667.339783,389.003265 667.342957,395.949341 
	C667.355591,423.444977 667.348511,450.940643 667.349060,478.924927 
z"/>
<path fill="#000000" opacity="1.000000" stroke="none" 
	d="
M638.729858,367.906891 
	C635.207886,358.873779 636.552734,352.290588 642.580444,347.907745 
	C648.967651,343.263519 659.482666,343.409973 665.341248,348.604553 
	C670.119141,352.840973 671.339905,358.457031 669.747498,364.516632 
	C667.961975,371.310883 662.812134,374.595978 656.317505,375.420502 
	C649.363953,376.303284 643.120178,374.493744 638.729858,367.906891 
z"/>
<path fill="#000000" opacity="1.000000" stroke="none" 
	d="
M233.952591,466.378998 
	C228.472031,466.373016 223.479736,466.476746 218.494553,466.333313 
	C212.817596,466.170044 210.699905,463.975433 210.666275,458.380890 
	C210.615295,449.899597 210.608322,441.417358 210.672913,432.936218 
	C210.712494,427.740051 212.671494,425.734985 217.925430,425.668060 
	C225.740494,425.568481 233.558868,425.573212 241.373856,425.679626 
	C246.869537,425.754425 249.198639,428.065216 249.299225,433.671082 
	C249.439438,441.485016 249.372437,449.303345 249.337463,457.119568 
	C249.307938,463.719452 246.948395,466.148682 240.430695,466.364349 
	C238.437149,466.430298 236.439682,466.377808 233.952591,466.378998 
M237.788879,440.102600 
	C235.108414,434.952911 230.265015,436.485016 226.101608,436.596130 
	C222.251480,436.698883 222.175568,440.041595 222.017044,442.884796 
	C221.859909,445.702789 221.960724,448.534821 221.819138,451.354187 
	C221.704453,453.637726 222.604309,454.537415 224.936218,454.800659 
	C237.404755,456.208374 237.920471,455.810394 237.877899,443.470947 
	C237.875031,442.640076 237.855286,441.809265 237.788879,440.102600 
z"/>
<path fill="#000000" opacity="1.000000" stroke="none" 
	d="
M208.257004,412.431763 
	C206.369507,416.154785 204.852081,419.842651 200.297211,420.156158 
	C198.832367,420.256958 196.925308,420.463623 196.418594,418.741150 
	C195.381851,415.216797 195.022980,411.370117 196.527451,408.056213 
	C197.725052,405.418213 200.979614,405.854218 203.619934,405.595459 
	C208.994385,405.068726 208.416611,408.649811 208.257004,412.431763 
z"/>
<path fill="#000000" opacity="1.000000" stroke="none" 
	d="
M266.770264,451.987671 
	C269.333801,455.856018 268.767242,459.978821 267.891693,463.640594 
	C266.901764,467.781006 262.778625,466.414276 259.868469,466.136536 
	C257.199432,465.881775 256.531799,463.840759 257.371918,461.332520 
	C257.576630,460.721344 257.649811,460.025879 257.611267,459.379456 
	C257.097473,450.764282 259.522003,451.373840 266.770264,451.987671 
z"/>
<path fill="#000000" opacity="1.000000" stroke="none" 
	d="
M224.693176,479.909760 
	C224.674606,476.993195 224.224701,474.119171 227.502502,473.412292 
	C230.392258,472.789093 234.425049,472.469238 235.845505,474.604126 
	C237.741287,477.453339 236.801285,481.768188 235.727814,485.003357 
	C234.859818,487.619232 231.343170,486.121765 228.992218,486.350098 
	C225.667953,486.673004 225.574951,483.940155 224.881836,481.827240 
	C224.730743,481.366669 224.759796,480.847015 224.693176,479.909760 
z"/>
<path fill="#000000" opacity="1.000000" stroke="none" 
	d="
M199.313873,483.295441 
	C193.984879,481.552368 195.892349,477.437866 196.019501,474.306244 
	C196.157990,470.895294 199.341385,471.830353 201.512146,471.680542 
	C207.574081,471.262146 210.858078,476.102325 207.940353,481.620361 
	C206.170547,484.967438 202.531921,482.815033 199.313873,483.295441 
z"/>
<path fill="#000000" opacity="1.000000" stroke="none" 
	d="
M236.804169,408.260803 
	C236.776901,415.885345 234.120712,419.039856 228.789398,418.287994 
	C226.028214,417.898590 224.761475,416.522827 225.085861,413.553925 
	C225.881699,406.270508 227.139130,404.759735 232.612457,404.663879 
	C234.971680,404.622559 236.459061,405.354492 236.804169,408.260803 
z"/>
<path fill="#000000" opacity="1.000000" stroke="none" 
	d="
M263.975220,474.306183 
	C264.212250,475.894440 264.317474,477.048828 264.322388,478.203583 
	C264.346466,483.883087 260.155121,486.879730 254.673492,485.219452 
	C253.315155,484.807983 252.821472,483.989685 252.750259,482.721954 
	C252.713181,482.061859 252.689987,481.400909 252.666763,480.740112 
	C252.362076,472.065674 255.308548,470.247925 263.975220,474.306183 
z"/>
<path fill="#000000" opacity="1.000000" stroke="none" 
	d="
M193.827271,460.910217 
	C190.200256,457.764404 191.199875,454.072479 193.222916,451.188477 
	C195.164795,448.420197 198.831863,449.356262 201.550980,450.222412 
	C204.471619,451.152740 203.090469,454.192749 203.286057,456.360168 
	C203.480972,458.520081 202.369690,459.811523 200.188751,460.102295 
	C198.213943,460.365570 196.236877,460.611694 193.827271,460.910217 
z"/>
<path fill="#000000" opacity="1.000000" stroke="none" 
	d="
M262.251404,436.956848 
	C259.875702,436.098511 256.801147,437.002655 256.721680,433.446136 
	C256.659058,430.644806 256.172028,427.613739 259.253235,425.974762 
	C261.311279,424.880066 263.744568,423.874146 265.806580,425.571716 
	C268.706390,427.959015 267.246765,431.413025 267.121155,434.387939 
	C267.011780,436.978027 264.832764,437.267944 262.251404,436.956848 
z"/>
<path fill="#000000" opacity="1.000000" stroke="none" 
	d="
M258.692535,419.298157 
	C255.375092,419.373138 252.434921,419.816376 252.603943,415.276703 
	C252.717361,412.230621 253.156372,409.763336 256.804810,409.988953 
	C259.328339,410.145020 262.899261,408.215637 263.949982,412.317108 
	C264.940979,416.185577 263.455688,418.829529 258.692535,419.298157 
z"/>
</svg>